<?xml version="1.0" encoding="UTF-8"?>
<svg id="Layer_2" xmlns="http://www.w3.org/2000/svg" xmlns:xlink="http://www.w3.org/1999/xlink" viewBox="0 0 728 196.32">
  <defs>
    <style>
      .cls-1 {
        clip-path: url(#clippath-6);
      }

      .cls-2 {
        clip-path: url(#clippath-7);
      }

      .cls-3 {
        clip-path: url(#clippath-17);
      }

      .cls-4 {
        fill: #581522;
      }

      .cls-5 {
        clip-path: url(#clippath-15);
      }

      .cls-6 {
        stroke: #000;
      }

      .cls-6, .cls-7 {
        fill: none;
      }

      .cls-8 {
        clip-path: url(#clippath-4);
      }

      .cls-9 {
        clip-path: url(#clippath-9);
      }

      .cls-10 {
        clip-path: url(#clippath-10);
      }

      .cls-11 {
        fill: #005232;
      }

      .cls-12 {
        clip-path: url(#clippath-11);
      }

      .cls-13 {
        clip-path: url(#clippath-1);
      }

      .cls-14 {
        clip-path: url(#clippath-5);
      }

      .cls-15 {
        clip-path: url(#clippath-8);
      }

      .cls-16 {
        clip-path: url(#clippath-3);
      }

      .cls-17 {
        clip-path: url(#clippath-12);
      }

      .cls-18 {
        clip-path: url(#clippath-14);
      }

      .cls-19 {
        fill: #58585a;
      }

      .cls-20 {
        clip-path: url(#clippath-16);
      }

      .cls-21 {
        clip-path: url(#clippath-2);
      }

      .cls-22 {
        clip-path: url(#clippath-13);
      }

      .cls-23 {
        clip-path: url(#clippath);
      }

      .cls-24 {
        opacity: .5;
      }
    </style>
    <clipPath id="clippath">
      <rect class="cls-7" width="728" height="196.32"/>
    </clipPath>
    <clipPath id="clippath-1">
      <rect class="cls-7" width="728" height="196.32"/>
    </clipPath>
    <clipPath id="clippath-2">
      <rect class="cls-7" width="728" height="196.32"/>
    </clipPath>
    <clipPath id="clippath-3">
      <rect class="cls-7" width="728" height="196.32"/>
    </clipPath>
    <clipPath id="clippath-4">
      <rect class="cls-7" width="728" height="196.32"/>
    </clipPath>
    <clipPath id="clippath-5">
      <rect class="cls-7" width="728" height="196.32"/>
    </clipPath>
    <clipPath id="clippath-6">
      <rect class="cls-7" width="728" height="196.32"/>
    </clipPath>
    <clipPath id="clippath-7">
      <rect class="cls-7" width="728" height="196.32"/>
    </clipPath>
    <clipPath id="clippath-8">
      <rect class="cls-7" width="728" height="196.32"/>
    </clipPath>
    <clipPath id="clippath-9">
      <rect class="cls-7" width="728" height="196.32"/>
    </clipPath>
    <clipPath id="clippath-10">
      <rect class="cls-7" width="728" height="196.32"/>
    </clipPath>
    <clipPath id="clippath-11">
      <rect class="cls-7" width="728" height="196.32"/>
    </clipPath>
    <clipPath id="clippath-12">
      <rect class="cls-7" width="728" height="196.32"/>
    </clipPath>
    <clipPath id="clippath-13">
      <rect class="cls-7" width="728" height="196.32"/>
    </clipPath>
    <clipPath id="clippath-14">
      <rect class="cls-7" width="728" height="196.32"/>
    </clipPath>
    <clipPath id="clippath-15">
      <rect class="cls-7" x="-10.16" y="108" width="748.32" height="10.16"/>
    </clipPath>
    <clipPath id="clippath-16">
      <rect class="cls-7" x="214.27" y="122.96" width="21.44" height="74.49"/>
    </clipPath>
    <clipPath id="clippath-17">
      <rect class="cls-7" x="459.34" y="122.96" width="21.44" height="74.49"/>
    </clipPath>
  </defs>
  <g id="Layer_1-2" data-name="Layer_1">
    <g class="cls-23">
      <g class="cls-13">
        <path class="cls-19" d="M16.06,161.76h6.24c2.19,0,3.83-.73,4.93-2.18,1.1-1.46,1.64-3.41,1.64-5.85,0-5.45-2.13-8.18-6.39-8.18h-6.42v16.21ZM21.51,170.91h-5.45v19.87H5.08v-54.38h17.51c5.5,0,9.75,1.43,12.75,4.28,3,2.85,4.5,6.9,4.5,12.15,0,7.22-2.63,12.27-7.88,15.16l9.52,22.26v.52h-11.8l-8.18-19.87Z"/>
      </g>
      <polygon class="cls-19" points="75.48 167.25 58.37 167.25 58.37 181.67 78.61 181.67 78.61 190.78 47.39 190.78 47.39 136.4 78.54 136.4 78.54 145.55 58.37 145.55 58.37 158.4 75.48 158.4 75.48 167.25"/>
      <path class="cls-19" d="M98.29,170.5h10.16l-5.08-19.38-5.08,19.38ZM110.88,179.65h-14.98l-2.91,11.13h-11.62l16.99-54.38h10.05l17.1,54.38h-11.73l-2.91-11.13Z"/>
      <g class="cls-21">
        <path class="cls-19" d="M166.68,172.67c-.27,6.2-2.02,10.89-5.23,14.08-3.21,3.19-7.74,4.78-13.59,4.78-6.15,0-10.86-2.02-14.13-6.07-3.27-4.04-4.91-9.82-4.91-17.31v-9.15c0-7.47,1.69-13.23,5.08-17.27,3.39-4.05,8.09-6.07,14.12-6.07s10.43,1.66,13.5,4.97c3.07,3.31,4.82,8.07,5.25,14.27h-11.02c-.1-3.83-.69-6.48-1.77-7.93-1.08-1.46-3.07-2.19-5.96-2.19s-5.02,1.03-6.24,3.08c-1.22,2.05-1.87,5.43-1.94,10.14v10.27c0,5.4.6,9.11,1.81,11.13,1.21,2.02,3.28,3.02,6.22,3.02s4.88-.7,5.98-2.11c1.09-1.41,1.72-3.95,1.87-7.64h10.98Z"/>
      </g>
      <polygon class="cls-19" points="211.57 190.78 200.62 190.78 200.62 167.51 184.41 167.51 184.41 190.78 173.44 190.78 173.44 136.4 184.41 136.4 184.41 158.4 200.62 158.4 200.62 136.4 211.57 136.4 211.57 190.78"/>
      <path class="cls-4" d="M500.41,170.5h10.16l-5.08-19.38-5.08,19.38ZM512.99,179.65h-14.98l-2.91,11.13h-11.61l16.99-54.37h10.05l17.1,54.37h-11.73l-2.91-11.13Z"/>
      <g class="cls-16">
        <path class="cls-4" d="M568.9,184.62c-2.12,2.29-4.71,4.02-7.79,5.17-3.07,1.16-6.44,1.74-10.1,1.74-6.25,0-11.1-1.93-14.56-5.81-3.46-3.87-5.24-9.51-5.34-16.9v-9.78c0-7.49,1.64-13.26,4.91-17.31,3.27-4.05,8.05-6.07,14.32-6.07,5.9,0,10.35,1.46,13.35,4.37,3,2.91,4.74,7.48,5.21,13.71h-10.68c-.3-3.46-1.02-5.82-2.17-7.08-1.15-1.26-2.94-1.89-5.38-1.89-2.96,0-5.12,1.08-6.46,3.25-1.35,2.17-2.04,5.61-2.09,10.34v9.86c0,4.95.74,8.56,2.22,10.81,1.48,2.26,3.92,3.38,7.3,3.38,2.17,0,3.92-.44,5.27-1.31l.97-.67v-9.97h-7.69v-8.29h18.71v22.44Z"/>
        <path class="cls-4" d="M650.99,161.76h6.24c2.19,0,3.83-.73,4.93-2.18,1.1-1.46,1.64-3.41,1.64-5.85,0-5.45-2.13-8.18-6.39-8.18h-6.42v16.21ZM656.45,170.91h-5.45v19.87h-10.98v-54.37h17.51c5.5,0,9.75,1.43,12.75,4.28,3,2.85,4.5,6.9,4.5,12.15,0,7.22-2.63,12.27-7.88,15.16l9.52,22.26v.52h-11.8l-8.18-19.87Z"/>
      </g>
      <path class="cls-4" d="M695.7,170.5h10.16l-5.08-19.38-5.08,19.38ZM708.28,179.65h-14.98l-2.91,11.13h-11.61l16.99-54.37h10.05l17.1,54.37h-11.73l-2.91-11.13Z"/>
      <g class="cls-8">
        <path class="cls-4" d="M605.38,158.37c0-.58-.47-1.04-1.04-1.04-3.45,0-6.26,2.81-6.26,6.26,0,.58.47,1.04,1.04,1.04s1.04-.47,1.04-1.04c0-2.3,1.87-4.17,4.17-4.17.58,0,1.04-.47,1.04-1.04"/>
        <path class="cls-4" d="M632.29,163.6c0-15.43-12.51-27.94-27.94-27.94s-27.94,12.51-27.94,27.94,12.11,27.53,27.2,27.93l-1.22-17.7c-4.81-.92-8.46-5.16-8.46-10.24,0-5.75,4.68-10.43,10.43-10.43s10.43,4.68,10.43,10.43c0,5.08-3.65,9.32-8.46,10.24l-1.22,17.7c15.09-.4,27.2-12.74,27.2-27.93"/>
        <path class="cls-11" d="M249.7,162.48h7.75c2.15,0,3.81-.7,4.99-2.11,1.18-1.41,1.77-3.45,1.77-6.14s-.6-5.01-1.8-6.66c-1.2-1.65-2.81-2.49-4.84-2.51h-7.87v17.42ZM249.7,171.88v19.65h-11.28v-55.87h19.03c5.53,0,9.93,1.71,13.22,5.14,3.29,3.43,4.93,7.88,4.93,13.35s-1.62,9.8-4.87,12.97c-3.25,3.17-7.75,4.76-13.51,4.76h-7.52Z"/>
      </g>
      <path class="cls-11" d="M290.03,170.69h10.44l-5.22-19.92-5.22,19.92ZM302.96,180.09h-15.39l-2.99,11.43h-11.93l17.46-55.87h10.32l17.57,55.87h-12.05l-2.99-11.43Z"/>
      <polygon class="cls-11" points="362.28 191.52 351 191.52 334.5 154.88 334.5 191.52 323.22 191.52 323.22 135.66 334.5 135.66 351.04 172.34 351.04 135.66 362.28 135.66 362.28 191.52"/>
      <g class="cls-14">
        <path class="cls-11" d="M382.62,145.06v37.11h3.38c3.76,0,6.41-.99,7.94-2.97,1.53-1.98,2.34-5.41,2.42-10.27v-9.71c0-5.22-.73-8.86-2.19-10.92-1.46-2.06-3.94-3.14-7.44-3.24h-4.11ZM371.34,191.52v-55.87h14.77c6.52,0,11.72,2.07,15.6,6.22,3.87,4.14,5.85,9.82,5.93,17.04v9.06c0,7.34-1.94,13.1-5.81,17.29-3.88,4.18-9.22,6.27-16.02,6.27h-14.47Z"/>
      </g>
      <path class="cls-11" d="M428.67,170.69h10.44l-5.22-19.92-5.22,19.92ZM441.6,180.09h-15.39l-2.99,11.43h-11.93l17.46-55.87h10.32l17.57,55.87h-12.05l-2.99-11.43Z"/>
      <rect x="5.08" y="1.33" width="19.6" height="97.08"/>
      <polygon points="66.76 1.33 85.09 71.55 103.36 1.33 128.97 1.33 128.97 98.42 109.3 98.42 109.3 72.15 111.1 31.67 91.69 98.42 78.36 98.42 58.96 31.67 60.76 72.15 60.76 98.42 41.15 98.42 41.15 1.33 66.76 1.33"/>
      <g class="cls-1">
        <path d="M164.31,47.94h13.47c3.73,0,6.62-1.22,8.67-3.67,2.05-2.44,3.07-6,3.07-10.67s-1.04-8.7-3.13-11.57c-2.09-2.87-4.89-4.33-8.4-4.37h-13.67v30.27ZM164.31,64.28v34.14h-19.6V1.33h33.07c9.6,0,17.26,2.98,22.97,8.93,5.71,5.96,8.57,13.69,8.57,23.2s-2.82,17.03-8.47,22.54c-5.65,5.51-13.47,8.27-23.47,8.27h-13.07Z"/>
      </g>
      <path d="M234.39,62.21h18.14l-9.07-34.61-9.07,34.61ZM256.86,78.55h-26.74l-5.2,19.87h-20.74L234.52,1.33h17.94l30.54,97.08h-20.94l-5.2-19.87Z"/>
      <g class="cls-2">
        <path d="M356.47,66.08c-.49,11.07-3.6,19.45-9.34,25.14-5.73,5.69-13.82,8.54-24.27,8.54-10.98,0-19.39-3.61-25.24-10.84-5.85-7.22-8.77-17.52-8.77-30.9v-16.34c0-13.34,3.02-23.61,9.07-30.84C303.98,3.61,312.38,0,323.13,0s18.61,2.96,24.1,8.87c5.49,5.91,8.61,14.4,9.37,25.47h-19.67c-.18-6.85-1.23-11.57-3.17-14.17-1.93-2.6-5.48-3.9-10.64-3.9s-8.96,1.83-11.14,5.5c-2.18,3.66-3.33,9.7-3.47,18.1v18.34c0,9.65,1.08,16.27,3.23,19.87,2.16,3.6,5.86,5.4,11.1,5.4s8.71-1.25,10.67-3.77c1.96-2.51,3.07-7.05,3.33-13.63h19.6Z"/>
      </g>
      <polygon points="429.49 17.67 405.48 17.67 405.48 98.42 385.81 98.42 385.81 17.67 362.21 17.67 362.21 1.33 429.49 1.33 429.49 17.67"/>
      <g class="cls-15">
        <path d="M478.58,18.38c0-.95-.24-1.66-.72-2.14-.49-.48-1.36-.99-2.64-1.51-2.33-.88-4-1.91-5.02-3.1-1.02-1.18-1.53-2.58-1.53-4.2,0-1.95.69-3.52,2.08-4.7,1.38-1.19,3.14-1.78,5.28-1.78,1.42,0,2.69.3,3.81.9,1.12.6,1.97,1.45,2.57,2.54.6,1.09.9,2.34.9,3.73h-4.67c0-1.08-.23-1.91-.69-2.48-.46-.57-1.13-.85-2-.85-.82,0-1.45.24-1.91.72-.46.48-.69,1.13-.69,1.95,0,.64.26,1.21.77,1.73.51.51,1.41,1.05,2.71,1.6,2.26.82,3.91,1.82,4.93,3.01,1.02,1.19,1.53,2.7,1.53,4.54,0,2.02-.64,3.59-1.93,4.73-1.28,1.14-3.03,1.7-5.24,1.7-1.5,0-2.86-.31-4.09-.92-1.23-.61-2.19-1.5-2.89-2.64-.7-1.15-1.04-2.5-1.04-4.06h4.7c0,1.34.26,2.31.78,2.91.52.6,1.37.91,2.55.91,1.64,0,2.45-.87,2.45-2.6"/>
        <path d="M490.57,8.74c.98-1.22,2.18-1.83,3.6-1.83,1.57,0,2.77.55,3.58,1.66.82,1.1,1.23,2.75,1.24,4.94v10.96h-4.52v-10.91c0-1.01-.16-1.74-.47-2.19-.32-.45-.82-.68-1.52-.68-.81,0-1.45.38-1.91,1.13v12.65h-4.51V0h4.51v8.74Z"/>
        <path d="M507.76,21.25c.5,0,.92-.1,1.27-.3.35-.2.61-.44.78-.72v-3.58h-1.08c-.76,0-1.37.25-1.81.73-.44.49-.66,1.14-.66,1.96,0,1.27.5,1.91,1.5,1.91M510.42,24.46c-.13-.26-.26-.71-.38-1.34-.81,1.1-1.9,1.66-3.28,1.66s-2.64-.48-3.59-1.43c-.95-.96-1.43-2.19-1.43-3.71,0-1.81.58-3.2,1.73-4.19,1.15-.99,2.81-1.49,4.98-1.51h1.37v-1.39c0-.77-.13-1.32-.4-1.64-.26-.32-.65-.48-1.16-.48-1.13,0-1.69.66-1.69,1.97h-4.51c0-1.59.6-2.91,1.79-3.94,1.19-1.04,2.7-1.55,4.53-1.55s3.35.49,4.39,1.47c1.04.98,1.55,2.39,1.55,4.21v8.11c.02,1.49.23,2.65.64,3.49v.27h-4.54Z"/>
        <path d="M526.52,15.26c0-1.67-.18-2.84-.55-3.54-.37-.69-.98-1.03-1.86-1.03-.92,0-1.6.39-2.02,1.16v8.07c.4.74,1.09,1.12,2.05,1.12.89,0,1.51-.38,1.86-1.13.34-.76.52-1.93.52-3.52v-1.13ZM531.01,16.39c0,2.71-.47,4.78-1.39,6.23-.93,1.44-2.31,2.17-4.15,2.17-1.4,0-2.53-.57-3.38-1.7v8.01h-4.51V7.23h4.17l.16,1.58c.86-1.26,2.03-1.9,3.52-1.9,1.84,0,3.22.67,4.15,2.01.93,1.34,1.4,3.38,1.42,6.15v1.32Z"/>
        <path d="M538.46,24.46h-4.52V7.23h4.52v17.23ZM533.73,2.77c0-.7.22-1.27.67-1.72.45-.45,1.04-.67,1.78-.67s1.34.22,1.78.67c.45.45.67,1.02.67,1.72s-.22,1.26-.66,1.72c-.44.46-1.04.69-1.79.69s-1.35-.23-1.79-.69c-.44-.46-.66-1.03-.66-1.72"/>
        <path d="M546.08,7.23l.13,1.7c1.02-1.35,2.35-2.02,4-2.02,2.96,0,4.49,2.08,4.57,6.23v11.32h-4.52v-10.99c0-.98-.15-1.69-.44-2.13-.29-.44-.81-.66-1.54-.66-.82,0-1.45.42-1.91,1.26v12.52h-4.52V7.23h4.24Z"/>
        <path d="M561.97,16.45c0,1.59.21,2.75.62,3.48.41.73,1.07,1.09,1.98,1.09s1.61-.34,2.05-1v-8.23c-.47-.73-1.14-1.1-2.02-1.1s-1.55.37-1.98,1.1c-.43.73-.65,1.91-.65,3.54v1.13ZM557.47,15.32c0-2.83.51-4.93,1.53-6.32,1.02-1.39,2.45-2.09,4.28-2.09,1.56,0,2.77.62,3.62,1.85l.17-1.53h4.06v17.23c0,2.2-.62,3.88-1.85,5.04-1.23,1.17-3,1.75-5.3,1.75-.94,0-1.94-.19-2.98-.57-1.04-.38-1.82-.86-2.33-1.44l1.51-3.12c.43.45.98.81,1.66,1.09.68.28,1.32.42,1.93.42,1.01,0,1.73-.24,2.18-.72.44-.48.67-1.26.67-2.34v-1.48c-.86,1.13-1.98,1.69-3.36,1.69-1.84,0-3.26-.71-4.26-2.14-1-1.43-1.52-3.44-1.54-6.05v-1.27Z"/>
        <path d="M590.87,15.26c0-1.67-.18-2.84-.55-3.54-.37-.69-.98-1.03-1.86-1.03-.92,0-1.6.39-2.02,1.16v8.07c.4.74,1.09,1.12,2.05,1.12.89,0,1.51-.38,1.86-1.13.34-.76.52-1.93.52-3.52v-1.13ZM595.36,16.39c0,2.71-.47,4.78-1.39,6.23-.93,1.44-2.31,2.17-4.15,2.17-1.4,0-2.53-.57-3.38-1.7v8.01h-4.51V7.23h4.17l.16,1.58c.86-1.26,2.03-1.9,3.52-1.9,1.84,0,3.22.67,4.15,2.01.93,1.34,1.4,3.38,1.42,6.15v1.32Z"/>
        <path d="M606.59,11.58l-1.5-.13c-1.23,0-2.06.54-2.5,1.63v11.39h-4.52V7.23h4.25l.13,1.86c.71-1.46,1.69-2.18,2.95-2.18.51,0,.92.07,1.24.21l-.05,4.46Z"/>
        <path d="M613.95,21.25c.5,0,.92-.1,1.27-.3.35-.2.61-.44.78-.72v-3.58h-1.08c-.76,0-1.37.25-1.81.73-.44.49-.66,1.14-.66,1.96,0,1.27.5,1.91,1.5,1.91M616.6,24.46c-.13-.26-.26-.71-.38-1.34-.8,1.1-1.9,1.66-3.28,1.66s-2.64-.48-3.59-1.43c-.95-.96-1.43-2.19-1.43-3.71,0-1.81.58-3.2,1.73-4.19,1.15-.99,2.81-1.49,4.98-1.51h1.37v-1.39c0-.77-.13-1.32-.4-1.64-.26-.32-.65-.48-1.16-.48-1.13,0-1.69.66-1.69,1.97h-4.51c0-1.59.6-2.91,1.79-3.94,1.2-1.04,2.71-1.55,4.53-1.55s3.35.49,4.39,1.47c1.04.98,1.55,2.39,1.55,4.21v8.11c.02,1.49.23,2.65.64,3.49v.27h-4.54Z"/>
        <path d="M630,21.04c1.31,0,1.97-.85,1.99-2.55h4.24c-.02,1.88-.6,3.4-1.74,4.56-1.13,1.16-2.6,1.74-4.4,1.74-2.22,0-3.91-.69-5.08-2.07-1.17-1.38-1.76-3.41-1.78-6.1v-1.37c0-2.71.58-4.77,1.73-6.2,1.15-1.42,2.85-2.13,5.1-2.13,1.9,0,3.4.59,4.49,1.76,1.1,1.17,1.65,2.84,1.67,4.99h-4.24c-.01-.96-.17-1.71-.48-2.23-.31-.52-.82-.78-1.53-.78-.78,0-1.35.28-1.69.84-.34.55-.52,1.64-.54,3.24v1.75c0,1.4.07,2.38.21,2.94.14.55.37.97.69,1.22.32.26.77.39,1.35.39"/>
        <path d="M644.02,2.99v4.24h2.31v3.38h-2.31v8.56c0,.68.09,1.15.28,1.41.19.26.55.38,1.07.38.44,0,.79-.04,1.07-.11l-.03,3.5c-.76.29-1.59.43-2.48.43-2.91,0-4.38-1.67-4.41-5.01v-9.17h-1.99v-3.38h1.99V2.99h4.51Z"/>
        <path d="M653.52,24.46h-4.52V7.23h4.52v17.23ZM648.79,2.77c0-.7.22-1.27.67-1.72.45-.45,1.04-.67,1.78-.67s1.34.22,1.78.67c.45.45.67,1.02.67,1.72s-.22,1.26-.66,1.72c-.44.46-1.04.69-1.79.69s-1.35-.23-1.79-.69c-.44-.46-.66-1.03-.66-1.72"/>
        <path d="M663.24,21.04c1.31,0,1.97-.85,1.99-2.55h4.24c-.02,1.88-.6,3.4-1.74,4.56-1.13,1.16-2.6,1.74-4.4,1.74-2.22,0-3.91-.69-5.08-2.07-1.17-1.38-1.76-3.41-1.78-6.1v-1.37c0-2.71.58-4.77,1.73-6.2,1.15-1.42,2.85-2.13,5.1-2.13,1.9,0,3.4.59,4.49,1.76,1.1,1.17,1.65,2.84,1.67,4.99h-4.24c-.01-.96-.17-1.71-.48-2.23-.3-.52-.81-.78-1.53-.78-.78,0-1.35.28-1.69.84-.34.55-.52,1.64-.54,3.24v1.75c0,1.4.07,2.38.21,2.94.14.55.37.97.68,1.22.32.26.77.39,1.35.39"/>
        <path d="M676.14,14.21h4.51v-.41c-.02-1.03-.19-1.81-.51-2.34-.32-.53-.87-.8-1.66-.8s-1.36.28-1.71.84c-.36.56-.57,1.47-.63,2.71M678.98,24.78c-2.31,0-4.12-.69-5.42-2.07-1.29-1.38-1.94-3.35-1.94-5.93v-1.37c0-2.72.6-4.82,1.78-6.29,1.19-1.48,2.9-2.21,5.11-2.21s3.8.69,4.89,2.08c1.1,1.38,1.65,3.43,1.67,6.14v2.21h-8.97c.06,1.28.35,2.22.84,2.81.5.59,1.27.89,2.31.89,1.51,0,2.77-.52,3.77-1.55l1.77,2.72c-.55.77-1.35,1.38-2.41,1.86-1.05.47-2.19.71-3.42.71"/>
        <path d="M695.25,19.85c0-.38-.18-.74-.55-1.06-.37-.33-1.18-.76-2.45-1.32-1.86-.75-3.13-1.54-3.83-2.34-.7-.81-1.05-1.81-1.05-3.01,0-1.51.54-2.75,1.63-3.74,1.09-.98,2.53-1.47,4.32-1.47,1.89,0,3.41.49,4.54,1.47,1.14.98,1.7,2.29,1.7,3.93h-4.51c0-1.4-.58-2.1-1.75-2.1-.48,0-.87.15-1.18.45-.31.3-.46.71-.46,1.24,0,.38.17.72.51,1.01.34.29,1.14.71,2.4,1.25,1.84.68,3.13,1.44,3.9,2.27.76.83,1.14,1.91,1.14,3.24,0,1.54-.58,2.78-1.73,3.71-1.16.93-2.68,1.4-4.56,1.4-1.26,0-2.38-.25-3.35-.74-.97-.5-1.72-1.18-2.27-2.06-.55-.88-.82-1.83-.82-2.85h4.28c.02.79.2,1.38.55,1.77.34.39.91.59,1.69.59,1.21,0,1.82-.55,1.82-1.64"/>
      </g>
      <rect x="468.99" y="35.53" width="4.68" height="23.19"/>
      <g class="cls-9">
        <path d="M481.51,41.48l.13,1.7c1.02-1.35,2.35-2.02,4-2.02,2.96,0,4.49,2.08,4.57,6.23v11.32h-4.52v-10.99c0-.98-.15-1.69-.44-2.13-.29-.44-.8-.66-1.54-.66-.81,0-1.45.42-1.91,1.26v12.52h-4.52v-17.23h4.24Z"/>
        <path d="M494.47,58.71v-13.86h-2.09v-3.38h2.09v-1.55c.01-1.9.51-3.38,1.51-4.44.99-1.05,2.36-1.58,4.12-1.58.53,0,1.21.11,2.04.32l-.03,3.6c-.3-.1-.67-.14-1.1-.14-1.34,0-2.01.8-2.01,2.39v1.4h2.69v3.38h-2.69v13.86h-4.52Z"/>
      </g>
      <rect x="504.33" y="34.25" width="4.52" height="24.46"/>
      <g class="cls-10">
        <path d="M520.82,57.14c-.93,1.26-2.19,1.9-3.76,1.9s-2.78-.54-3.6-1.63c-.82-1.09-1.23-2.67-1.23-4.76v-11.17h4.51v11.28c.02,1.68.58,2.52,1.67,2.52,1.03,0,1.77-.45,2.23-1.34v-12.46h4.54v17.23h-4.24l-.13-1.58Z"/>
        <path d="M532.52,48.46h4.51v-.41c-.02-1.03-.19-1.81-.51-2.34-.32-.53-.87-.8-1.66-.8s-1.36.28-1.71.84c-.36.56-.57,1.47-.63,2.71M535.36,59.03c-2.31,0-4.12-.69-5.42-2.07-1.29-1.38-1.94-3.35-1.94-5.93v-1.37c0-2.72.6-4.82,1.78-6.29,1.19-1.47,2.9-2.21,5.11-2.21s3.8.69,4.89,2.08c1.1,1.38,1.65,3.43,1.67,6.14v2.21h-8.97c.06,1.28.35,2.22.84,2.81.5.59,1.27.89,2.31.89,1.51,0,2.77-.52,3.78-1.55l1.77,2.72c-.55.77-1.35,1.38-2.41,1.86-1.05.47-2.19.71-3.42.71"/>
        <path d="M548.13,41.48l.13,1.7c1.02-1.35,2.35-2.02,4-2.02,2.96,0,4.49,2.08,4.57,6.23v11.32h-4.52v-10.99c0-.98-.15-1.69-.44-2.13-.29-.44-.81-.66-1.54-.66-.81,0-1.45.42-1.91,1.26v12.52h-4.52v-17.23h4.24Z"/>
        <path d="M566.29,55.29c1.31,0,1.97-.85,1.99-2.55h4.24c-.02,1.88-.6,3.4-1.74,4.56-1.13,1.16-2.6,1.74-4.4,1.74-2.22,0-3.91-.69-5.08-2.07-1.17-1.38-1.76-3.42-1.78-6.1v-1.37c0-2.71.58-4.77,1.73-6.2,1.15-1.42,2.85-2.13,5.1-2.13,1.9,0,3.4.59,4.49,1.76,1.1,1.17,1.65,2.84,1.67,4.99h-4.24c-.01-.97-.17-1.71-.48-2.23-.31-.52-.82-.78-1.53-.78-.78,0-1.35.28-1.69.84-.34.55-.52,1.64-.54,3.24v1.75c0,1.4.07,2.38.21,2.94.14.55.37.97.69,1.22.32.26.77.39,1.35.39"/>
        <path d="M579.8,58.72h-4.52v-17.23h4.52v17.23ZM575.07,37.02c0-.7.22-1.27.67-1.72.45-.45,1.04-.67,1.78-.67s1.34.22,1.78.67c.45.45.67,1.02.67,1.72s-.22,1.26-.66,1.72c-.44.45-1.04.69-1.79.69s-1.35-.23-1.79-.69c-.44-.46-.66-1.03-.66-1.72"/>
        <path d="M587.41,41.48l.13,1.7c1.02-1.35,2.35-2.02,4-2.02,2.96,0,4.49,2.08,4.57,6.23v11.32h-4.52v-10.99c0-.98-.15-1.69-.44-2.13-.29-.44-.81-.66-1.54-.66-.82,0-1.45.42-1.91,1.26v12.52h-4.52v-17.23h4.24Z"/>
        <path d="M603.31,50.7c0,1.59.21,2.75.62,3.48.41.73,1.07,1.09,1.98,1.09s1.61-.33,2.05-1v-8.23c-.47-.73-1.14-1.1-2.02-1.1s-1.55.37-1.98,1.1c-.43.73-.65,1.91-.65,3.54v1.13ZM598.8,49.57c0-2.83.51-4.93,1.53-6.32,1.02-1.39,2.45-2.09,4.28-2.09,1.56,0,2.77.62,3.62,1.85l.18-1.53h4.06v17.23c0,2.2-.62,3.88-1.85,5.04-1.23,1.17-3,1.75-5.3,1.75-.94,0-1.94-.19-2.98-.57-1.04-.38-1.82-.86-2.33-1.44l1.51-3.12c.43.45.98.81,1.66,1.09.68.28,1.32.42,1.93.42,1.01,0,1.73-.24,2.18-.72.44-.48.67-1.26.67-2.34v-1.48c-.86,1.13-1.98,1.69-3.36,1.69-1.84,0-3.26-.71-4.26-2.14-1-1.43-1.52-3.44-1.54-6.05v-1.27Z"/>
        <path d="M632.2,49.51c0-1.67-.18-2.84-.55-3.54-.37-.69-.98-1.03-1.86-1.03-.92,0-1.6.39-2.02,1.16v8.08c.41.74,1.09,1.12,2.06,1.12.89,0,1.51-.38,1.86-1.13.34-.76.52-1.93.52-3.52v-1.13ZM636.69,50.64c0,2.71-.47,4.78-1.39,6.23-.93,1.44-2.31,2.17-4.15,2.17-1.4,0-2.53-.57-3.38-1.7v8.01h-4.51v-23.86h4.17l.16,1.58c.86-1.27,2.04-1.9,3.52-1.9,1.84,0,3.22.67,4.15,2.01.93,1.34,1.4,3.39,1.42,6.15v1.32Z"/>
        <path d="M643.41,50.67c0,3.08.83,4.62,2.47,4.62,1.52,0,2.34-1.28,2.45-3.85l.02-1.9c0-1.57-.22-2.74-.65-3.5-.43-.76-1.05-1.14-1.85-1.14s-1.36.38-1.79,1.14c-.43.76-.65,1.93-.65,3.5v1.13ZM638.89,49.54c0-2.61.62-4.66,1.85-6.15,1.23-1.49,2.94-2.23,5.11-2.23s3.91.74,5.14,2.23c1.23,1.49,1.85,3.55,1.85,6.18v1.1c0,2.62-.61,4.67-1.83,6.15-1.22,1.48-2.93,2.21-5.13,2.21s-3.92-.74-5.15-2.22c-1.23-1.48-1.84-3.54-1.84-6.17v-1.1Z"/>
      </g>
      <rect x="655.85" y="34.25" width="4.52" height="24.46"/>
      <g class="cls-12">
        <path d="M668.59,58.72h-4.52v-17.23h4.52v17.23ZM663.86,37.02c0-.7.22-1.27.67-1.72.45-.45,1.04-.67,1.78-.67s1.34.22,1.78.67c.45.45.67,1.02.67,1.72s-.22,1.26-.66,1.72c-.44.45-1.04.69-1.79.69s-1.35-.23-1.79-.69c-.44-.46-.66-1.03-.66-1.72"/>
        <path d="M678.31,55.29c1.31,0,1.97-.85,1.99-2.55h4.24c-.02,1.88-.6,3.4-1.74,4.56-1.13,1.16-2.6,1.74-4.4,1.74-2.22,0-3.91-.69-5.08-2.07-1.17-1.38-1.76-3.42-1.78-6.1v-1.37c0-2.71.58-4.77,1.73-6.2,1.15-1.42,2.85-2.13,5.1-2.13,1.9,0,3.4.59,4.49,1.76,1.1,1.17,1.65,2.84,1.67,4.99h-4.24c-.01-.97-.17-1.71-.48-2.23-.3-.52-.81-.78-1.53-.78-.78,0-1.35.28-1.69.84-.34.55-.52,1.64-.54,3.24v1.75c0,1.4.07,2.38.21,2.94.14.55.37.97.69,1.22.32.26.77.39,1.35.39"/>
        <path d="M691.81,58.72h-4.52v-17.23h4.52v17.23ZM687.08,37.02c0-.7.22-1.27.67-1.72.45-.45,1.04-.67,1.78-.67s1.34.22,1.78.67c.45.45.67,1.02.67,1.72s-.22,1.26-.66,1.72c-.44.45-1.04.69-1.79.69s-1.35-.23-1.79-.69c-.44-.46-.66-1.03-.66-1.72"/>
        <path d="M699.43,48.46h4.51v-.41c-.02-1.03-.19-1.81-.51-2.34-.32-.53-.87-.8-1.66-.8s-1.36.28-1.71.84c-.36.56-.57,1.47-.63,2.71M702.26,59.03c-2.31,0-4.12-.69-5.42-2.07-1.29-1.38-1.94-3.35-1.94-5.93v-1.37c0-2.72.6-4.82,1.78-6.29,1.19-1.47,2.9-2.21,5.11-2.21s3.8.69,4.89,2.08c1.1,1.38,1.65,3.43,1.67,6.14v2.21h-8.97c.06,1.28.35,2.22.84,2.81.5.59,1.27.89,2.31.89,1.51,0,2.77-.52,3.77-1.55l1.77,2.72c-.55.77-1.35,1.38-2.41,1.86-1.05.47-2.19.71-3.42.71"/>
        <path d="M718.54,54.1c0-.38-.18-.74-.55-1.06-.37-.33-1.18-.77-2.45-1.32-1.86-.75-3.13-1.54-3.83-2.34-.7-.81-1.05-1.81-1.05-3.01,0-1.51.55-2.75,1.63-3.74,1.09-.98,2.53-1.47,4.32-1.47,1.89,0,3.41.49,4.54,1.47,1.14.98,1.7,2.29,1.7,3.93h-4.51c0-1.4-.58-2.1-1.75-2.1-.48,0-.87.15-1.18.45-.31.3-.46.71-.46,1.24,0,.38.17.72.51,1.01.34.29,1.14.71,2.4,1.25,1.84.68,3.13,1.44,3.9,2.27.76.83,1.14,1.91,1.14,3.24,0,1.54-.58,2.78-1.74,3.71-1.16.93-2.68,1.4-4.56,1.4-1.26,0-2.38-.25-3.35-.74-.97-.5-1.72-1.18-2.27-2.06-.55-.88-.82-1.83-.82-2.85h4.28c.02.79.2,1.38.55,1.77.34.39.91.59,1.69.59,1.21,0,1.82-.55,1.82-1.64"/>
      </g>
      <rect x="468.99" y="69.78" width="4.68" height="23.19"/>
      <g class="cls-17">
        <path d="M481.62,75.73l.13,1.59c1.01-1.27,2.34-1.91,4-1.91s2.94.77,3.65,2.33c.99-1.55,2.4-2.33,4.22-2.33,3.02,0,4.56,2.09,4.63,6.26v11.29h-4.51v-11.01c0-1-.14-1.71-.41-2.13-.27-.42-.74-.64-1.4-.64-.84,0-1.47.52-1.88,1.55l.03.54v11.69h-4.51v-10.97c0-.99-.13-1.7-.4-2.14-.27-.44-.74-.66-1.42-.66-.77,0-1.39.42-1.85,1.26v12.52h-4.51v-17.23h4.22Z"/>
        <path d="M510.51,83.76c0-1.67-.18-2.84-.55-3.54-.37-.69-.98-1.04-1.86-1.04-.92,0-1.6.39-2.02,1.16v8.08c.4.74,1.09,1.12,2.05,1.12.89,0,1.51-.38,1.86-1.13.34-.76.52-1.93.52-3.52v-1.13ZM515,84.89c0,2.71-.47,4.78-1.39,6.23-.93,1.44-2.31,2.17-4.15,2.17-1.4,0-2.53-.57-3.38-1.7v8.01h-4.51v-23.86h4.17l.16,1.58c.86-1.26,2.04-1.9,3.52-1.9,1.84,0,3.22.67,4.15,2.01.93,1.34,1.4,3.39,1.42,6.15v1.32Z"/>
        <path d="M523.25,89.75c.5,0,.92-.1,1.27-.3.35-.2.61-.44.78-.72v-3.58h-1.08c-.76,0-1.37.25-1.81.73-.44.49-.66,1.14-.66,1.96,0,1.27.5,1.91,1.5,1.91M525.91,92.97c-.13-.26-.26-.71-.38-1.34-.81,1.11-1.9,1.66-3.28,1.66s-2.64-.48-3.59-1.43c-.95-.95-1.43-2.19-1.43-3.71,0-1.81.58-3.2,1.73-4.19,1.15-.99,2.81-1.49,4.98-1.51h1.37v-1.38c0-.77-.13-1.32-.4-1.64-.26-.32-.65-.48-1.16-.48-1.13,0-1.69.66-1.69,1.98h-4.51c0-1.59.6-2.91,1.79-3.94,1.2-1.04,2.7-1.55,4.53-1.55s3.35.49,4.39,1.47c1.04.98,1.55,2.39,1.55,4.21v8.11c.02,1.49.24,2.65.64,3.49v.27h-4.54Z"/>
        <path d="M539.31,89.54c1.31,0,1.97-.85,1.99-2.55h4.24c-.02,1.88-.6,3.4-1.74,4.56-1.13,1.16-2.6,1.74-4.4,1.74-2.22,0-3.91-.69-5.08-2.07-1.17-1.38-1.76-3.41-1.78-6.1v-1.37c0-2.71.58-4.77,1.73-6.2,1.15-1.42,2.85-2.13,5.1-2.13,1.9,0,3.4.59,4.49,1.76,1.1,1.18,1.65,2.84,1.67,4.99h-4.24c0-.97-.17-1.71-.48-2.23-.31-.52-.82-.78-1.53-.78-.78,0-1.35.28-1.69.84-.34.55-.52,1.64-.54,3.24v1.75c0,1.4.07,2.38.21,2.94.14.55.37.97.68,1.22.32.26.77.39,1.35.39"/>
        <path d="M553.33,71.5v4.24h2.31v3.38h-2.31v8.57c0,.68.09,1.15.28,1.4.19.26.55.38,1.07.38.44,0,.79-.04,1.07-.11l-.03,3.5c-.77.29-1.59.43-2.49.43-2.91,0-4.38-1.67-4.41-5.01v-9.17h-1.99v-3.38h1.99v-4.24h4.51Z"/>
        <path d="M562.83,92.97h-4.52v-17.23h4.52v17.23ZM558.1,71.27c0-.7.22-1.27.67-1.72.45-.45,1.04-.67,1.78-.67s1.34.22,1.78.67c.45.45.67,1.02.67,1.72s-.22,1.27-.66,1.72c-.44.46-1.04.69-1.79.69s-1.35-.23-1.79-.69c-.44-.45-.66-1.03-.66-1.72"/>
        <path d="M570.45,75.73l.13,1.7c1.02-1.35,2.35-2.02,4-2.02,2.96,0,4.49,2.08,4.57,6.23v11.32h-4.52v-10.99c0-.98-.15-1.69-.44-2.13-.29-.44-.81-.66-1.54-.66-.82,0-1.45.42-1.91,1.26v12.52h-4.52v-17.23h4.24Z"/>
        <path d="M586.34,84.95c0,1.59.21,2.75.62,3.48.41.73,1.07,1.09,1.98,1.09s1.61-.33,2.05-1v-8.23c-.47-.73-1.14-1.1-2.02-1.1s-1.55.37-1.98,1.1c-.43.73-.65,1.91-.65,3.54v1.13ZM581.84,83.82c0-2.83.51-4.93,1.53-6.32,1.02-1.39,2.45-2.09,4.28-2.09,1.56,0,2.77.62,3.62,1.85l.17-1.53h4.06v17.23c0,2.2-.62,3.88-1.85,5.04-1.23,1.17-3,1.75-5.3,1.75-.94,0-1.94-.19-2.98-.57-1.04-.38-1.82-.86-2.33-1.44l1.51-3.12c.43.45.98.81,1.66,1.09.68.28,1.32.42,1.93.42,1.01,0,1.73-.24,2.18-.72.44-.48.66-1.26.67-2.33v-1.48c-.86,1.13-1.98,1.69-3.36,1.69-1.83,0-3.26-.71-4.26-2.14-1-1.43-1.52-3.44-1.54-6.05v-1.27Z"/>
      </g>
      <rect x="606.51" y="68.5" width="4.52" height="24.46"/>
      <g class="cls-22">
        <path d="M619.25,92.97h-4.52v-17.23h4.52v17.23ZM614.52,71.27c0-.7.22-1.27.67-1.72.45-.45,1.04-.67,1.78-.67s1.34.22,1.78.67c.44.45.67,1.02.67,1.72s-.22,1.27-.66,1.72c-.44.46-1.04.69-1.79.69s-1.35-.23-1.79-.69c-.44-.45-.66-1.03-.66-1.72"/>
      </g>
      <polygon points="628.39 86.59 630.57 75.73 635.27 75.73 630.54 92.97 626.24 92.97 621.49 75.73 626.21 75.73 628.39 86.59"/>
      <g class="cls-18">
        <path d="M641.31,82.71h4.51v-.41c-.02-1.03-.19-1.81-.51-2.34-.32-.53-.87-.8-1.66-.8s-1.36.28-1.71.84c-.36.56-.57,1.47-.63,2.71M644.14,93.28c-2.31,0-4.12-.69-5.42-2.07-1.29-1.38-1.94-3.35-1.94-5.93v-1.37c0-2.72.6-4.82,1.78-6.29,1.19-1.47,2.9-2.21,5.11-2.21s3.8.69,4.89,2.08c1.1,1.38,1.65,3.43,1.67,6.14v2.21h-8.97c.06,1.28.35,2.22.84,2.81.5.59,1.27.89,2.31.89,1.51,0,2.77-.52,3.78-1.55l1.77,2.72c-.55.76-1.35,1.38-2.41,1.86-1.05.47-2.19.71-3.42.71"/>
        <path d="M660.42,88.35c0-.38-.18-.74-.55-1.06-.37-.33-1.18-.77-2.45-1.32-1.86-.76-3.13-1.54-3.83-2.34-.7-.81-1.04-1.81-1.04-3.01,0-1.51.54-2.75,1.63-3.74,1.09-.98,2.53-1.47,4.32-1.47,1.89,0,3.4.49,4.54,1.47,1.14.98,1.7,2.29,1.7,3.93h-4.51c0-1.4-.58-2.1-1.75-2.1-.48,0-.87.15-1.18.45-.31.3-.46.71-.46,1.24,0,.38.17.72.51,1.01.34.29,1.14.71,2.4,1.25,1.84.68,3.13,1.44,3.9,2.27.76.83,1.14,1.91,1.14,3.24,0,1.54-.58,2.78-1.74,3.71-1.16.93-2.68,1.4-4.55,1.4-1.26,0-2.38-.25-3.35-.74-.97-.5-1.72-1.18-2.27-2.06-.55-.88-.82-1.83-.82-2.85h4.28c.02.79.2,1.38.55,1.77.34.39.91.59,1.69.59,1.21,0,1.82-.55,1.82-1.64"/>
        <g class="cls-24">
          <g class="cls-5">
            <line class="cls-6" y1="116.47" x2="728" y2="116.47"/>
          </g>
        </g>
        <g class="cls-24">
          <g class="cls-20">
            <line class="cls-6" x1="224.99" y1="130.86" x2="224.99" y2="196.32"/>
          </g>
        </g>
        <g class="cls-24">
          <g class="cls-3">
            <line class="cls-6" x1="470.07" y1="130.86" x2="470.07" y2="196.32"/>
          </g>
        </g>
      </g>
    </g>
  </g>
</svg>